<svg width="115" height="270" viewBox="0 0 115 270" fill="none" xmlns="http://www.w3.org/2000/svg">
<path d="M60.8075 44.5176C60.8075 44.5176 66.1593 49.3318 73.8075 55.5176" stroke="black" stroke-width="1.5" stroke-linecap="round" stroke-linejoin="round"/>
<path d="M70.3017 113.295C70.3017 113.295 89.8075 157.018 78.8075 204.518" stroke="black" stroke-width="1.5"/>
<path d="M61.3075 112.518C61.3075 112.518 65.8075 146.518 57.3075 203.018M15.3075 203.018C15.3075 203.018 13.7036 130.584 13.7036 99.3848" stroke="black" stroke-width="1.5"/>
<path d="M51.5239 13.7186V28.4876L33.2278 32.9846V8.06063L51.5239 3.56396V13.7186Z" fill="#EDEEEF"/>
<path d="M41.1887 18.8285C41.4588 18.8285 41.6778 18.6095 41.6778 18.3393C41.6778 18.0691 41.4588 17.8501 41.1887 17.8501C40.9185 17.8501 40.6995 18.0691 40.6995 18.3393C40.6995 18.6095 40.9185 18.8285 41.1887 18.8285Z" fill="black"/>
<path d="M48.7024 18.8285C48.9726 18.8285 49.1916 18.6095 49.1916 18.3393C49.1916 18.0691 48.9726 17.8501 48.7024 17.8501C48.4322 17.8501 48.2132 18.0691 48.2132 18.3393C48.2132 18.6095 48.4322 18.8285 48.7024 18.8285Z" fill="black"/>
<path d="M46.4982 21.2571V13.7183H50.2746" stroke="black" stroke-width="1.5" stroke-linecap="round" stroke-linejoin="round"/>
<path d="M40.2671 13.7184H44.0439" stroke="black" stroke-width="1.5" stroke-linecap="round" stroke-linejoin="round"/>
<path d="M34.4329 17.5809V20.1989C33.0207 20.1989 31.8759 19.0541 31.8759 17.6418C31.8759 17.5634 31.8793 17.4858 31.8863 17.4091C32.0296 15.8213 34.4329 15.9866 34.4329 17.5809Z" fill="#EDEEEF"/>
<path d="M34.4329 20.1991C33.0207 20.1991 31.8759 19.0543 31.8759 17.6421" stroke="black" stroke-width="1.5" stroke-linecap="round" stroke-linejoin="round"/>
<path d="M44.8462 23.1159C43.4168 23.1159 42.2581 21.9572 42.2581 20.5278" stroke="black" stroke-width="1.5" stroke-linecap="round" stroke-linejoin="round"/>
<path d="M51.524 28.4878L33.2278 32.9847" stroke="black" stroke-width="1.5" stroke-linecap="round" stroke-linejoin="round"/>
<path d="M46.498 21.2632L44.8462 21.6692" stroke="black" stroke-width="1.5" stroke-linecap="round" stroke-linejoin="round"/>
<path d="M34.4329 17.2168C34.4329 17.2168 36.7647 12.9628 36.8797 11.0658L37.512 13.7182C37.512 13.7182 41.8235 12.388 44.4678 9.11128V12.4838C44.4678 12.4838 49.5543 11.4107 50.8626 8.01904V11.1808C50.8626 11.1808 52.4584 10.0885 52.8608 8.42145" stroke="black" stroke-width="1.5" stroke-linecap="round" stroke-linejoin="round"/>
<path d="M51.5239 14.0552C51.5239 14.0552 60.8199 4.19326 48.2132 1.46578C39.1791 -0.488739 34.4328 4.34008 34.4328 4.34008C34.4328 4.34008 31.3035 5.83471 30.0388 8.36409C28.7741 10.8935 28.2537 17.3894 33.2278 22.2182" stroke="black" stroke-width="1.5" stroke-linecap="round" stroke-linejoin="round"/>
<path d="M13.7036 59.4321V99.3847L70.3017 113.296V68.7993C70.3017 53.0217 59.5305 39.2825 44.2089 35.5167H44.2088C36.8611 33.7107 29.091 35.3827 23.1364 40.051C17.1818 44.7193 13.7036 51.8657 13.7036 59.4321V59.4321Z" stroke="black"/>
<path d="M51.524 89.5986C51.524 89.5986 51.5555 56.6933 70.3017 56.4829C89.048 56.2724 82.5243 34.793 82.5243 34.793L113.249 41.7519C113.249 41.7519 118.3 71.2138 92.4151 80.0474C79.1875 84.5616 84.8475 115.346 84.8475 115.346L50.8627 111.408V106.871" stroke="black" stroke-width="1.5"/>
<path d="M18.5518 44.749C18.5518 44.749 0.772266 68.0345 1.00221 95.3978C1.23216 122.761 43.5418 120.232 59.6379 98.3871C59.6379 98.3871 70.2153 91.0289 68.6057 89.4193C66.9961 87.8097 59.9498 89.3486 59.9498 89.3486C59.9498 89.3486 61.2475 85.6252 59.293 86.545C57.3384 87.4647 54.7188 89.3864 54.7188 89.3864L29.0288 91.0931L34.8862 67.1147" stroke="black" stroke-width="1.5" stroke-linecap="round" stroke-linejoin="round"/>
<path d="M18.5518 44.749C18.5518 44.749 0.772266 68.0345 1.00221 95.3978C1.23216 122.761 43.5418 120.232 59.6379 98.3871C59.6379 98.3871 70.2153 91.0289 68.6057 89.4193C66.9961 87.8097 59.9498 89.3486 59.9498 89.3486C59.9498 89.3486 61.2475 85.6252 59.293 86.545C57.3384 87.4647 54.7188 89.3864 54.7188 89.3864L29.0288 91.0931L34.8862 67.1147" stroke="black" stroke-width="1.5" stroke-linecap="round" stroke-linejoin="round"/>
<path d="M14.166 113.73V133.107C41.5864 126.668 55.3446 103.217 55.3446 103.217L55.3437 103.216C44.1483 113.783 26.3259 117.921 14.166 113.73Z" fill="black"/>
<path d="M79.5855 109.367C79.5855 109.367 99.4182 114.886 103.385 105.745C107.351 96.6052 100.28 71.4264 100.28 71.4264C100.28 71.4264 102.35 66.9425 101.315 65.7353C100.28 64.5281 99.2457 65.7353 99.2457 65.7353C99.2457 65.7353 97.6074 57.8022 95.1067 58.4058C92.6061 59.0094 90.7523 71.2862 89.8075 81.0176" stroke="black" stroke-width="1.5" stroke-linecap="round" stroke-linejoin="round"/>
</svg>
